<?xml version="1.0" encoding="UTF-8" standalone="no"?>
<svg
   xmlns:dc="http://purl.org/dc/elements/1.1/"
   xmlns:cc="http://creativecommons.org/ns#"
   xmlns:rdf="http://www.w3.org/1999/02/22-rdf-syntax-ns#"
   xmlns:svg="http://www.w3.org/2000/svg"
   xmlns="http://www.w3.org/2000/svg"
   version="1.1"
   id="svg10"
   xml:space="preserve"
   width="2216.48"
   height="157.30667"
   viewBox="0 0 2216.48 157.30667"><metadata
     id="metadata16"><rdf:RDF><cc:Work
         rdf:about=""><dc:format>image/svg+xml</dc:format><dc:type
           rdf:resource="http://purl.org/dc/dcmitype/StillImage" /><dc:title></dc:title></cc:Work></rdf:RDF></metadata><defs
     id="defs14" /><g
     id="g18"
     transform="matrix(1.3333333,0,0,-1.3333333,0,157.30667)"><g
       id="g20"
       transform="scale(0.1)"><path
         d="m 1910.64,114.121 -657.18,-0.391 v 247.622 h 657.17 c 68.33,0 123.71,-55.243 123.71,-123.543 0,-68.297 -55.38,-123.688 -123.7,-123.688 z m -657.18,591.328 h 189.27 V 643.16 c 0,-71.301 -45.34,-169.492 -189.27,-169.492 v 231.781 z m 411.39,-47.89 v 47.89 l 254.08,0.121 c 63.67,0 115.27,-51.621 115.27,-115.281 0,-63.644 -51.6,-115.266 -115.27,-115.266 l -348.58,-0.085 c 65.73,49.472 94.5,122.48 94.5,182.621 z M 2164.1,425.648 c 7.78,1.231 15.47,2.551 22.95,4.493 16.29,4.199 31.76,10.429 46.16,18.379 60.93,33.71 102.28,98.593 102.28,173.121 0,122.23 -104.1,197.718 -213.32,197.718 h -457.32 v 196.481 c 0,31.93 12.85,50.33 45.41,50.33 h 143.06 v 113.6 h -599.86 v -113.6 h 143.89 c 32.58,0 45.38,-18.4 45.38,-50.33 V 819.16 H 696.559 V 705.199 l 136.347,-0.058 c 31.801,0 51.68,-17.539 51.68,-50.692 V 473.668 C 603.77,473.668 561.25,597.34 561.25,714.281 v 301.559 c 0,31.93 12.813,50.33 45.391,50.33 H 750.27 v 113.6 H 0 v -113.6 h 143.887 c 32.578,0 45.39,-18.4 45.39,-50.33 V 719.262 c 0,-251.824 265.996,-357.91 695.309,-357.91 V 164.359 c 0,-33.129 -19.879,-50.668 -51.68,-50.668 H 695.984 V 0 H 2121.92 c 116.41,0 226.36,81.8984 226.36,210.824 0,81.965 -46.82,153.028 -115.15,187.864 -14.47,7.402 -29.9,13.152 -46.08,17.05 -7.48,1.825 -15.19,3.016 -22.95,4.2 -3.49,0.535 -3.59,5.164 0,5.71 v 0"
         style="fill:#2058ab;fill-opacity:1;fill-rule:nonzero;stroke:none"
         id="path22" /><path
         d="M 9459.96,656.648 V 361.305 h -58.85 v 295.343 h -96.05 v 48.532 h 250.43 v -48.532 h -95.53 v 0"
         style="fill:#707276;fill-opacity:1;fill-rule:nonzero;stroke:none"
         id="path24" /><path
         d="M 9755.69,361.305 V 526.5 c 0,27.898 -9.79,43.914 -38.19,43.914 -32,0 -55.74,-30.996 -60.89,-37.684 V 361.305 h -54.73 V 733.07 h 54.73 V 578.668 c 11.87,13.953 37.19,38.723 79.48,38.723 53.7,0 74.41,-35.102 74.41,-79.477 V 361.305 h -54.81 v 0"
         style="fill:#707276;fill-opacity:1;fill-rule:nonzero;stroke:none"
         id="path26" /><path
         d="m 10022.1,517.23 c -1.1,31.504 -14.5,58.36 -51.2,58.36 -33.5,0 -52.1,-22.742 -57.8,-58.36 h 109 z m -39.81,-119.246 c 34.61,0 55.81,12.879 67.11,19.618 l 19.1,-37.704 c -14.4,-8.789 -41.3,-24.777 -89.81,-24.777 -81.59,0 -124.99,55.742 -124.99,132.668 0,76.434 50.1,129.602 118.29,129.602 73.31,0 111.01,-53.168 103.21,-139.379 h -163.6 c 2.5,-45.449 23.19,-80.028 70.69,-80.028 v 0"
         style="fill:#707276;fill-opacity:1;fill-rule:nonzero;stroke:none"
         id="path28" /><path
         d="m 10367.5,355.121 c -54.2,0 -88.8,22.188 -102.3,34.59 l 26.4,40.773 c 7.7,-6.183 33,-27.863 75.9,-27.863 38.2,0 61.4,22.188 61.4,48.02 0,35.613 -37.7,48.007 -77.4,68.144 -42.4,20.633 -77,44.922 -77,100.664 0,57.84 48.6,91.914 106.4,91.914 53.7,0 83.1,-18.586 96,-28.371 l -25.3,-41.324 c -11.8,8.254 -36.1,22.195 -68.6,22.195 -31,0 -52.2,-16.004 -52.2,-43.351 0,-29.981 27.4,-41.844 62.5,-57.86 45.4,-21.172 92.9,-44.394 92.9,-109.453 0,-58.859 -46.4,-98.078 -118.7,-98.078 v 0"
         style="fill:#707276;fill-opacity:1;fill-rule:nonzero;stroke:none"
         id="path30" /><path
         d="m 10510,569.379 v 41.832 h 40.3 v 71.781 h 54.7 v -71.781 h 60.5 V 569.379 H 10605 V 436.695 c 0,-24.797 6.7,-36.144 26.9,-36.144 15,0 28.4,7.219 33,10.312 l 15.5,-41.289 c -9.3,-5.176 -28.9,-14.453 -58.3,-14.453 -51.1,0 -71.8,27.891 -71.8,72.774 v 141.484 h -40.3 v 0"
         style="fill:#707276;fill-opacity:1;fill-rule:nonzero;stroke:none"
         id="path32" /><path
         d="m 10858,475.406 h -9.8 c -45.9,0 -78.5,-12.883 -78.5,-48.027 0,-21.68 17.6,-29.941 33.1,-29.941 29.9,0 47.5,19.121 55.2,27.878 v 50.09 z m 6.7,-114.101 c -1.5,6.726 -3.6,20.633 -4.1,28.406 -10.8,-13.953 -35.6,-34.59 -72.3,-34.59 -41.8,0 -73.3,25.801 -73.3,69.18 0,65.051 69.7,87.258 133.2,87.258 h 9.8 v 18.054 c 0,26.34 -9.8,42.891 -44.9,42.891 -33.5,0 -54.7,-18.106 -64,-25.313 l -25.8,35.098 c 13.9,12.395 43.9,35.102 95.5,35.102 61.9,0 94,-26.34 94,-88.274 V 427.379 c 0,-29.395 3,-52.141 6.1,-66.074 h -54.2 v 0"
         style="fill:#707276;fill-opacity:1;fill-rule:nonzero;stroke:none"
         id="path34" /><path
         d="m 10948,569.379 v 41.832 h 40.3 v 71.781 h 54.7 v -71.781 h 60.4 V 569.379 H 11043 V 436.695 c 0,-24.797 6.7,-36.144 26.9,-36.144 14.9,0 28.4,7.219 33,10.312 l 15.5,-41.289 c -9.3,-5.176 -28.9,-14.48 -58.3,-14.48 -51.2,0 -71.8,27.918 -71.8,72.801 v 141.484 h -40.3 v 0"
         style="fill:#707276;fill-opacity:1;fill-rule:nonzero;stroke:none"
         id="path36" /><path
         d="m 11306.4,517.23 c -1.1,31.504 -14.5,58.36 -51.1,58.36 -33.6,0 -52.2,-22.742 -57.9,-58.36 h 109 z m -39.8,-119.246 c 34.6,0 55.8,12.879 67.1,19.618 l 19.1,-37.704 c -14.4,-8.789 -41.3,-24.804 -89.8,-24.804 -81.6,0 -124.9,55.769 -124.9,132.695 0,76.434 50,129.602 118.2,129.602 73.3,0 111,-53.168 103.3,-139.379 h -163.7 c 2.5,-45.449 23.2,-80.028 70.7,-80.028 v 0"
         style="fill:#707276;fill-opacity:1;fill-rule:nonzero;stroke:none"
         id="path38" /><path
         d="m 11714.3,355.094 c -97.1,0 -140.5,51.648 -140.5,137.344 V 705.18 h 58.4 V 498.109 c 0,-64.004 24.7,-94.5 83.6,-94.5 55.8,0 80.6,35.145 80.6,88.829 V 705.18 h 54.2 V 497.074 c 0,-89.304 -44.4,-141.98 -136.3,-141.98 v 0"
         style="fill:#707276;fill-opacity:1;fill-rule:nonzero;stroke:none"
         id="path40" /><path
         d="M 12056.9,361.305 V 526.5 c 0,27.898 -9.8,43.914 -38.2,43.914 -31.5,0 -55.2,-30.996 -60.4,-37.684 V 361.305 h -55.2 v 249.906 h 54.1 v -33.559 c 12.4,14.95 37.7,39.739 80.1,39.739 53.7,0 74.3,-35.102 74.3,-79.524 V 361.305 h -54.7 v 0"
         style="fill:#707276;fill-opacity:1;fill-rule:nonzero;stroke:none"
         id="path42" /><path
         d="m 12169.4,361.305 v 249.906 h 55.3 V 361.305 h -55.3 z m 27.4,288.617 c -20.1,0 -35.6,16.031 -35.6,35.098 0,19.101 15.5,35.132 35.6,35.132 20.7,0 36.2,-16.031 36.2,-35.132 0,-19.067 -15.5,-35.098 -36.2,-35.098 v 0"
         style="fill:#707276;fill-opacity:1;fill-rule:nonzero;stroke:none"
         id="path44" /><path
         d="m 12389.8,430.484 60.4,180.727 h 56.3 l -92.4,-249.906 h -51.1 l -94,249.906 h 59.4 l 60.4,-180.727 h 1 v 0"
         style="fill:#707276;fill-opacity:1;fill-rule:nonzero;stroke:none"
         id="path46" /><path
         d="m 12696.3,517.23 c -1,31.504 -14.5,58.36 -51.1,58.36 -33.6,0 -52.2,-22.742 -57.9,-58.36 h 109 z m -39.8,-119.246 c 34.6,0 55.8,12.879 67.2,19.618 l 19,-37.704 c -14.4,-8.789 -41.3,-24.804 -89.8,-24.804 -81.6,0 -124.9,55.769 -124.9,132.695 0,76.434 50,129.602 118.2,129.602 73.3,0 111,-53.168 103.3,-139.379 h -163.7 c 2.6,-45.449 23.2,-80.028 70.7,-80.028 v 0"
         style="fill:#707276;fill-opacity:1;fill-rule:nonzero;stroke:none"
         id="path48" /><path
         d="m 12940.6,562.164 c -3.6,2.059 -10.4,5.145 -24.3,5.145 -33.6,0 -52.7,-34.579 -57.3,-43.887 V 361.305 h -55.2 v 249.906 h 55.2 v -36.168 c 10.3,17.559 31.5,42.348 64.5,42.348 17.1,0 25.8,-3.614 30.5,-6.18 l -13.4,-49.047 v 0"
         style="fill:#707276;fill-opacity:1;fill-rule:nonzero;stroke:none"
         id="path50" /><path
         d="m 13063.6,354.605 c -40.7,0 -68.6,13.426 -84.1,24.247 l 20.1,39.257 c 9.3,-6.726 33,-20.671 61.4,-20.671 28.5,0 45.5,10.332 45.5,28.914 0,19.648 -23.3,26.347 -59.4,42.871 -36.6,16.515 -61.4,35.097 -61.4,74.863 0,43.352 33.5,73.305 86.7,73.305 42.3,0 67.6,-15.493 77.5,-21.672 l -21.7,-38.223 c -9.3,6.211 -28.4,17.031 -54.2,17.031 -25.3,0 -37.7,-10.304 -37.7,-27.336 0,-20.136 21.7,-26.863 49.5,-38.222 40.3,-16.531 72.3,-34.59 72.3,-76.953 0,-49.004 -36.1,-77.411 -94.5,-77.411 v 0"
         style="fill:#707276;fill-opacity:1;fill-rule:nonzero;stroke:none"
         id="path52" /><path
         d="m 13208.3,361.305 v 249.906 h 55.2 V 361.305 h -55.2 z m 27.3,288.617 c -20.1,0 -35.6,16.031 -35.6,35.098 0,19.101 15.5,35.132 35.6,35.132 20.7,0 36.2,-16.031 36.2,-35.132 0,-19.067 -15.5,-35.098 -36.2,-35.098 v 0"
         style="fill:#707276;fill-opacity:1;fill-rule:nonzero;stroke:none"
         id="path54" /><path
         d="m 13310.4,569.379 v 41.832 h 40.3 v 71.781 h 54.7 v -71.781 h 60.4 v -41.832 h -60.4 V 436.695 c 0,-24.797 6.8,-36.144 26.9,-36.144 14.9,0 28.4,7.219 33,10.312 l 15.5,-41.289 c -9.3,-5.176 -28.9,-14.48 -58.4,-14.48 -51,0 -71.7,27.918 -71.7,72.801 v 141.484 h -40.3 v 0"
         style="fill:#707276;fill-opacity:1;fill-rule:nonzero;stroke:none"
         id="path56" /><path
         d="m 13503.2,611.211 h 59.4 L 13625.1,431 h 1.5 l 59.4,180.211 h 56.8 l -104.3,-279.34 c -20.1,-53.691 -43.9,-90.851 -108.9,-90.851 -17.6,0 -27.4,2.05 -32.5,3.605 l 7.7,43.895 c 3.6,-0.547 8.3,-2.071 22.2,-2.071 35.1,0 48,18.067 59.4,49.571 l 10.8,29.414 -94,245.777 v 0"
         style="fill:#707276;fill-opacity:1;fill-rule:nonzero;stroke:none"
         id="path58" /><path
         d="m 14037.6,574.527 c -44.4,0 -60.9,-37.675 -60.9,-87.238 0,-49.57 19.1,-88.816 63.5,-88.816 44.9,0 63.5,37.187 63.5,87.265 0,49.559 -21.2,88.789 -66.1,88.789 z m 2.1,-219.433 c -86.2,0 -120.8,69.207 -120.8,130.644 0,61.453 33.5,131.653 119.8,131.653 85.7,0 123.4,-68.657 123.4,-130.102 0,-60.937 -36.7,-132.195 -122.4,-132.195 v 0"
         style="fill:#707276;fill-opacity:1;fill-rule:nonzero;stroke:none"
         id="path60" /><path
         d="m 14281.3,361.305 h -54.8 v 208.074 h -39.7 v 41.832 h 39.7 v 30.457 c 0,58.844 34.1,97.586 95,97.586 31,0 47,-6.734 52.2,-9.305 l -13.4,-43.347 c -3.7,1.539 -15.5,6.699 -33.6,6.699 -30.5,0 -45.4,-19.641 -45.4,-55.754 v -26.336 h 60.9 v -41.832 h -60.9 v -208.074 0"
         style="fill:#707276;fill-opacity:1;fill-rule:nonzero;stroke:none"
         id="path62" /><path
         d="m 14781.6,361.305 -149.8,215.312 c -16,22.703 -30.4,48.012 -30.4,48.012 h -1.1 c 0,0 2.1,-22.207 2.1,-41.832 V 361.305 h -53.2 V 705.18 h 58.4 l 140.9,-202.41 c 18.6,-26.848 34.6,-54.739 34.6,-54.739 h 1 c 0,0 -2,24.278 -2,50.617 V 705.18 h 53.1 V 361.305 h -53.6 v 0"
         style="fill:#707276;fill-opacity:1;fill-rule:nonzero;stroke:none"
         id="path64" /><path
         d="m 15052.9,517.23 c -1.1,31.504 -14.5,58.36 -51.1,58.36 -33.6,0 -52.1,-22.742 -57.9,-58.36 h 109 z m -39.8,-119.246 c 34.6,0 55.8,12.879 67.1,19.618 l 19.2,-37.704 c -14.5,-8.789 -41.3,-24.804 -89.9,-24.804 -81.6,0 -124.9,55.769 -124.9,132.695 0,76.434 50.1,129.602 118.2,129.602 73.3,0 111,-53.168 103.3,-139.379 h -163.7 c 2.6,-45.449 23.2,-80.028 70.7,-80.028 v 0"
         style="fill:#707276;fill-opacity:1;fill-rule:nonzero;stroke:none"
         id="path66" /><path
         d="m 15422.6,361.305 h -49.6 l -55.7,179.148 h -1.1 L 15260,361.305 h -49.6 l -72.3,249.906 h 58.9 l 44.9,-172.457 h 1 l 49.6,172.457 h 51.6 l 50.1,-172.973 h 1 l 45.5,172.973 h 54.7 l -72.8,-249.906 v 0"
         style="fill:#707276;fill-opacity:1;fill-rule:nonzero;stroke:none"
         id="path68" /><path
         d="M 15833.6,491.41 V 361.305 h -58.3 V 491.41 l -114.7,213.77 h 65.1 l 81.1,-159.539 h 0.5 l 81,159.539 h 56.8 l -111.5,-213.77 v 0"
         style="fill:#707276;fill-opacity:1;fill-rule:nonzero;stroke:none"
         id="path70" /><path
         d="m 16038,574.527 c -44.3,0 -60.9,-37.675 -60.9,-87.238 0,-49.57 19.1,-88.816 63.5,-88.816 45,0 63.5,37.187 63.5,87.265 0,49.559 -21.1,88.789 -66.1,88.789 z m 2.1,-219.433 c -86.2,0 -120.8,69.207 -120.8,130.644 0,61.453 33.6,131.653 119.8,131.653 85.7,0 123.4,-68.657 123.4,-130.102 0,-60.937 -36.7,-132.195 -122.4,-132.195 v 0"
         style="fill:#707276;fill-opacity:1;fill-rule:nonzero;stroke:none"
         id="path72" /><g
         id="g74"
         transform="scale(1.00389)"><path
           d="m 16286.6,559.986 c -3.6,2.051 -10.3,5.125 -24.2,5.125 -33.4,0 -52.4,-34.445 -57,-43.717 V 359.905 h -55.1 v 248.938 h 55.1 v -36.028 c 10.2,17.491 31.2,42.184 64.2,42.184 17,0 25.7,-3.6 30.4,-6.156 l -13.4,-48.857 v 0"
           style="fill:#707276;fill-opacity:1;fill-rule:nonzero;stroke:none"
           id="path76" /></g><g
         id="g78"
         transform="scale(1.01985)"><path
           d="m 16145.1,354.271 h -53.7 V 718.8 h 53.7 V 494.503 l 91.1,104.81 h 60.3 l -95.7,-108.851 99.2,-136.191 h -63.2 l -91.7,130.093 v -130.093 0"
           style="fill:#707276;fill-opacity:1;fill-rule:nonzero;stroke:none"
           id="path80" /></g><path
         d="M 5780.73,698.223 V 632.23 c 6.2,-2.058 20.64,-4.121 35.08,-5.503 l -34.38,-97.661 c -7.57,-20.613 -17.87,-47.421 -22.01,-68.046 h -1.38 c -3.44,19.941 -13.07,47.433 -20.63,68.769 l -35.04,96.938 c 12.36,1.382 25.43,3.445 31.6,5.503 v 65.993 H 5561.4 V 632.23 c 6.86,-2.058 19.24,-4.121 34.36,-5.503 l 103.15,-266.086 -8.95,-23.371 c -16.84,-44.024 -34.14,-55.196 -98.33,-52.918 l 32.8,-84.622 c 95.87,-1.238 132.23,45.403 165.24,129.27 l 118.24,297.051 c 15.86,1.371 28.89,4.121 37.15,6.179 v 65.993 h -164.33 v 0"
         style="fill:#2058ab;fill-opacity:1;fill-rule:nonzero;stroke:none"
         id="path82" /><path
         d="m 6277.9,448.629 v 59.844 h -10.99 c -49.51,0 -81.13,-13.75 -81.13,-48.828 0,-24.055 17.86,-34.387 38.5,-34.387 26.12,0 42.63,11.015 53.62,23.371 z m -191.13,0.711 c 0,84.57 81.82,118.242 180.14,118.242 h 10.99 v 20.637 c 0,26.82 -13.05,39.203 -51.55,39.203 -37.82,0 -70.15,-17.879 -86.65,-30.953 l -41.93,60.504 c 24.76,22.711 72.87,49.507 140.94,49.507 98.32,0 143.72,-36.46 143.72,-128.546 V 463.766 c 0,-12.383 0,-23.371 0.68,-33.692 17.2,-1.367 32.32,-2.043 41.25,-2.043 v -66.707 c -23.37,-2.062 -72.2,-4.14 -134.75,-4.14 -2.76,8.261 -4.82,26.14 -5.51,39.199 h -1.37 c -15.13,-19.922 -46.77,-43.301 -92.14,-43.301 -57.07,0 -103.82,34.375 -103.82,96.258 v 0"
         style="fill:#2058ab;fill-opacity:1;fill-rule:nonzero;stroke:none"
         id="path84" /><path
         d="m 6481.81,463.082 v 158.129 h -50.88 v 77.031 h 50.88 v 96.938 h 103.82 v -96.938 h 82.5 v -77.031 h -82.5 V 481.645 c 0,-33.016 11.01,-46.055 34.38,-46.055 19.92,0 35.75,8.242 42.63,11.672 l 22,-74.942 c -15.13,-8.254 -45.39,-19.238 -88.71,-19.238 -86.62,0 -114.12,43.301 -114.12,110 v 0"
         style="fill:#2058ab;fill-opacity:1;fill-rule:nonzero;stroke:none"
         id="path86" /><path
         d="m 7026.99,439.711 h 53.63 c 49.51,0 74.26,17.187 74.26,59.133 0,39.863 -22.01,59.824 -70.14,59.824 h -57.75 V 439.711 Z m 0,191.137 h 46.07 c 46.74,0 66.71,18.562 66.71,56.394 0,36.43 -21.34,54.321 -63.97,54.321 h -48.81 V 630.848 Z M 6862.66,426.656 c 11.68,3.418 38.5,6.875 55.01,6.875 v 313.52 c -16.51,0 -44.02,3.437 -55.01,6.898 v 65.313 h 225.53 c 84.57,0 160.88,-26.133 160.88,-113.461 0,-63.274 -36.42,-94.199 -85.94,-106.559 v -1.387 c 53.64,-8.25 104.51,-41.941 104.51,-109.316 0,-92.84 -77.01,-127.215 -181.53,-127.215 h -223.45 v 65.332 0"
         style="fill:#2058ab;fill-opacity:1;fill-rule:nonzero;stroke:none"
         id="path88" /><path
         d="m 7333.75,463.082 v 165.027 c -17.88,2.063 -30.26,2.739 -42.64,2.739 v 66.031 c 25.46,2.719 80.46,5.48 151.29,5.48 l -3.44,-55 V 482.328 c 0,-30.945 10.97,-45.398 39.86,-45.398 27.51,0 49.51,21.336 60.52,35.789 v 155.39 c -18.58,2.063 -33.7,2.739 -46.08,2.739 v 66.031 c 25.45,2.719 83.9,5.48 154.03,5.48 l -3.44,-55 V 461.703 c 0,-11.687 0,-21.992 0.66,-31.629 17.19,-1.367 34.39,-2.043 44.03,-2.043 v -66.707 c -23.38,-2.062 -73.56,-4.14 -137.52,-4.14 -3.44,10.32 -6.87,37.839 -7.56,50.886 h -1.39 c -21.31,-27.488 -51.55,-54.988 -106.56,-54.988 -74.26,0 -101.76,47.449 -101.76,110 v 0"
         style="fill:#2058ab;fill-opacity:1;fill-rule:nonzero;stroke:none"
         id="path90" /><path
         d="m 8407.95,448.629 v 59.844 h -11.04 c -49.46,0 -81.11,-13.75 -81.11,-48.828 0,-24.055 17.87,-34.387 38.5,-34.387 26.15,0 42.61,11.015 53.65,23.371 z m -191.17,0.711 c 0,84.57 81.82,118.242 180.13,118.242 h 11.04 v 20.637 c 0,26.82 -13.09,39.203 -51.6,39.203 -37.78,0 -70.12,-17.879 -86.62,-30.953 l -41.93,60.504 c 24.74,22.711 72.87,49.507 140.95,49.507 98.32,0 143.7,-36.46 143.7,-128.546 V 463.766 c 0,-12.383 0,-23.371 0.69,-33.692 17.19,-1.367 31.47,-2.043 31.47,-2.043 v -66.707 c -23.38,-2.062 -62.4,-4.14 -125,-4.14 -2.73,8.261 -4.79,26.14 -5.5,39.199 h -1.36 c -15.11,-19.922 -46.77,-43.301 -92.14,-43.301 -57.07,0 -103.83,34.375 -103.83,96.258 v 0"
         style="fill:#2058ab;fill-opacity:1;fill-rule:nonzero;stroke:none"
         id="path92" /><path
         d="m 8581.39,426.656 c 11.03,3.035 28.81,6.875 43.02,6.875 V 784.18 c -18.57,2.07 -35.74,3.441 -48.12,3.441 v 65.309 c 25.45,2.758 84.57,5.511 156.76,5.511 l -4.14,-55 v -369.91 c 14.43,0 35.76,-4.133 44.68,-6.875 v -65.332 h -192.2 v 65.332 0"
         style="fill:#2058ab;fill-opacity:1;fill-rule:nonzero;stroke:none"
         id="path94" /><path
         d="m 9022.93,528.395 c 0,59.824 -15.84,102.453 -63.26,102.453 -46.76,0 -60.53,-39.868 -60.53,-98.996 0,-59.836 16.5,-102.454 63.26,-102.454 46.74,0 60.53,39.192 60.53,98.997 z m -234.49,-0.665 c 0,88.68 55.02,178.75 172.6,178.75 118.26,0 173.26,-83.867 173.26,-174.628 0,-86.653 -55,-178.77 -173.26,-178.77 -118.97,0 -172.6,84.57 -172.6,174.648 v 0"
         style="fill:#2058ab;fill-opacity:1;fill-rule:nonzero;stroke:none"
         id="path96" /><path
         d="M 2564.92,540.094 V 747.75 c -17.21,0 -36.45,3.422 -46.08,6.199 v 65.313 h 205.6 v -65.313 c -9.64,-2.777 -31.64,-6.199 -48.82,-6.199 V 542.828 c 0,-72.883 26.12,-105.898 94.2,-105.898 63.25,0 89.38,37.156 89.38,101.101 V 747.75 c -17.19,0 -39.21,3.422 -48.13,6.199 v 65.313 h 186.33 v -65.313 c -9.62,-2.777 -28.88,-6.199 -45.39,-6.199 V 551.07 c 0,-128.554 -60.5,-197.988 -190.44,-197.988 -134.77,0 -196.65,65.996 -196.65,187.012 v 0"
         style="fill:#2058ab;fill-opacity:1;fill-rule:nonzero;stroke:none"
         id="path98" /><path
         d="m 3000.39,426.656 c 10.32,3.418 33.01,6.875 48.83,6.875 v 194.578 c -18.57,2.063 -36.45,2.731 -48.83,2.731 v 66.039 c 25.44,2.719 83.89,5.48 153.33,5.48 l -2.74,-48.82 h 1.38 c 20.61,27.52 52.94,52.941 105.19,52.941 74.26,0 101.77,-48.14 101.77,-110.703 V 433.531 c 14.43,0 35.06,-4.14 44.68,-6.875 v -65.332 h -149.21 v 215.899 c 0,30.925 -11.67,45.39 -40.55,45.39 -27.51,0 -49.52,-21.336 -60.52,-35.773 V 433.531 c 16.51,-1.398 34.39,-4.14 41.95,-6.875 v -65.332 h -195.28 v 65.332 0"
         style="fill:#2058ab;fill-opacity:1;fill-rule:nonzero;stroke:none"
         id="path100" /><path
         d="m 3488.74,799.32 c 0,32.301 25.45,59.121 61.89,59.121 36.43,0 61.89,-26.82 61.89,-59.121 0,-32.328 -25.46,-60.531 -61.89,-60.531 -36.44,0 -61.89,28.203 -61.89,60.531 z m -39.86,-372.664 c 10.3,3.418 32.99,6.875 48.81,6.875 v 194.578 c -18.57,2.063 -36.45,2.731 -48.81,2.731 v 66.039 c 25.42,2.719 84.56,5.48 158.13,5.48 l -3.42,-55 V 433.531 c 14.43,0 35.74,-4.14 44.69,-6.875 v -65.332 h -199.4 v 65.332 0"
         style="fill:#2058ab;fill-opacity:1;fill-rule:nonzero;stroke:none"
         id="path102" /><path
         d="m 3686.35,626.727 c -15.12,1.382 -27.5,3.445 -34.37,5.503 v 65.993 h 172.58 V 632.23 c -6.19,-2.058 -19.24,-4.121 -31.64,-5.503 L 3828,529.086 c 7.57,-20.633 17.19,-48.125 20.63,-67.383 h 1.36 c 3.44,19.258 13.76,46.75 21.34,67.383 l 35.04,97.641 c -14.42,1.382 -28.86,3.445 -35.04,5.503 v 65.993 h 164.33 V 632.23 c -8.26,-2.058 -21.31,-4.808 -37.15,-6.199 L 3893.32,361.324 H 3788.8 l -102.45,265.403 v 0"
         style="fill:#2058ab;fill-opacity:1;fill-rule:nonzero;stroke:none"
         id="path104" /><path
         d="m 4274.5,568.285 c -0.71,39.863 -14.47,70.149 -50.2,70.149 -37.81,0 -57.74,-26.852 -61.2,-70.149 h 111.4 z m -221.4,-43.992 c 0,115.516 70.81,182.187 176.68,182.187 98.32,0 146.45,-63.953 146.45,-157.453 0,-10.996 -0.68,-32.996 -2.06,-45.39 h -209.01 c 2.74,-46.739 31.63,-76.981 81.81,-76.981 42.61,0 67.39,11.68 84.56,21.973 l 31.66,-62.559 c -24.07,-14.453 -62.59,-32.988 -131.35,-32.988 -112.75,0 -178.74,63.25 -178.74,171.211 v 0"
         style="fill:#2058ab;fill-opacity:1;fill-rule:nonzero;stroke:none"
         id="path106" /><path
         d="m 4422.08,426.656 c 10.31,3.418 33.01,6.875 48.81,6.875 v 194.578 c -18.54,2.063 -36.44,2.731 -48.81,2.731 v 66.039 c 25.44,2.719 85.26,5.48 154.69,5.48 l -4.1,-57.089 h 1.38 c 13.75,27.543 45.37,61.21 85.24,61.21 26.14,0 40.59,-5.5 48.83,-10.32 l -24.06,-89.379 c -6.21,4.141 -18.57,9.629 -37.84,9.629 -37.11,0 -61.17,-27.5 -70.81,-43.308 V 433.531 c 16.51,0 45.38,-3.457 54.99,-6.875 v -65.332 h -208.32 v 65.332 0"
         style="fill:#2058ab;fill-opacity:1;fill-rule:nonzero;stroke:none"
         id="path108" /><path
         d="m 4742.73,377.816 v 92.129 h 72.22 c 0.68,-2.07 3.45,-30.937 3.45,-36.414 17.16,-4.14 36.42,-7.578 55.69,-7.578 35.75,0 53.62,9.637 53.62,28.192 0,23.378 -33,28.878 -70.84,38.496 -51.53,12.382 -111.37,31.652 -111.37,109.316 0,68.063 50.87,104.523 140.26,104.523 59.13,0 110.7,-13.058 127.21,-22.683 v -90.766 h -72.89 c -1.38,6.871 -2.74,22.008 -4.1,35.078 -15.13,3.43 -31.65,6.184 -46.79,6.184 -34.37,0 -50.87,-8.262 -50.87,-27.512 0,-23.379 37.13,-28.191 78.41,-38.496 50.84,-12.371 107.24,-31.64 107.24,-103.144 0,-73.582 -59.81,-112.059 -149.88,-112.059 -56.41,0 -109.32,11.68 -131.36,24.734 v 0"
         style="fill:#2058ab;fill-opacity:1;fill-rule:nonzero;stroke:none"
         id="path110" /><path
         d="m 5114.99,799.32 c 0,32.301 25.43,59.121 61.89,59.121 36.42,0 61.89,-26.82 61.89,-59.121 0,-32.328 -25.47,-60.531 -61.89,-60.531 -36.46,0 -61.89,28.203 -61.89,60.531 z m -39.88,-372.664 c 10.32,3.418 33.01,6.875 48.81,6.875 v 194.578 c -18.57,2.063 -36.45,2.731 -48.81,2.731 v 66.039 c 25.44,2.719 84.55,5.48 158.15,5.48 l -3.44,-55 V 433.531 c 14.42,0 35.74,-4.14 44.69,-6.875 v -65.332 h -199.4 v 65.332 0"
         style="fill:#2058ab;fill-opacity:1;fill-rule:nonzero;stroke:none"
         id="path112" /><path
         d="m 5510.05,444.371 c -8.24,-3.828 -21.19,-8.781 -36.67,-8.781 -23.36,0 -34.39,13.039 -34.39,46.055 v 139.566 h 82.53 v 77.012 h -82.53 v 96.957 h -103.83 v -96.957 h -50.87 v -77.012 h 50.87 V 463.082 c 0,-66.699 27.52,-110 114.16,-110 43.28,0 73.53,10.977 88.67,19.227 l -27.94,72.062 v 0"
         style="fill:#2058ab;fill-opacity:1;fill-rule:nonzero;stroke:none"
         id="path114" /><path
         d="m 8161.86,782.117 c 25.43,0 40.59,-6.867 47.44,-9.617 l 23.4,74.273 c -9.67,5.477 -35.76,17.856 -90.08,17.856 -87.34,0 -134.76,-55.699 -134.76,-136.84 v -29.547 h -123.93 v 24.067 c 0,39.171 14.44,59.808 46.75,59.808 11.49,0 21.1,-1.828 28.43,-4.129 6.25,27.621 17.88,51.582 34.03,71.239 l 0.1,0.265 c -13.04,6.899 -41.92,15.137 -82.5,15.137 -83.87,0 -131.32,-55.699 -131.32,-136.84 v -29.547 h -48.81 v -77.031 h 48.81 v -187.68 c -15.82,0 -38.51,-3.457 -48.81,-6.875 v -65.332 h 200.07 v 65.332 c -8.93,2.742 -32.31,6.875 -46.75,6.875 v 193.891 h 123.93 V 433.531 c -16.51,0 -33.72,-3.457 -44.04,-6.875 v -65.332 h 195.85 l 9.77,65.332 c -8.95,2.742 -43.34,6.875 -57.76,6.875 v 187.68 h 79.06 v 77.031 h -79.06 v 24.067 c 0,39.171 14.42,59.808 50.18,59.808 v 0"
         style="fill:#2058ab;fill-opacity:1;fill-rule:nonzero;stroke:none"
         id="path116" /></g></g></svg>
